#Comment line ignore any data following # character 
#Hierarchical Translation and Rotation (.htr) file 
[Header]	
#Header keywords are followed by a single value 
FileType HTR		#Single word string
DataType HTRS		#Translation followed by rotation and scale data
FileVersion 1		#integer
NumSegments 84		#integer
NumFrames 2		#integer
DataFrameRate 30		#integer, data frame rate in this file
EulerRotationOrder ZYX
CalibrationUnits mm
RotationUnits Degrees
GlobalAxisofGravity Y
BoneLengthAxis Y
ScaleFactor 1.00
[SegmentNames&Hierarchy]
#CHILD	PARENT
MASTER GLOBAL
root MASTER
chest root
L_mid_tent01 root
R_mid_tent01 root
spine01 root
Bip01_Neck chest
L_humerus chest
R_humerus chest
weapon_bone chest
Bip01_Head Bip01_Neck
eye_left_bone Bip01_Head
eye_right_bone Bip01_Head
L_forearm L_humerus
L_front_hand L_forearm
L_weapon_bone L_forearm
L_front_hand01_01 L_front_hand
L_front_hand02_01 L_front_hand
L_front_hand03_01 L_front_hand
L_front_hand01_02 L_front_hand01_01
L_front_hand02_02 L_front_hand02_01
L_front_hand03_02 L_front_hand03_01
R_forearm R_humerus
R_front_hand R_forearm
R_weapon_bone R_forearm
R_front_hand01_01 R_front_hand
R_front_hand02_01 R_front_hand
R_front_hand03_01 R_front_hand
R_front_hand01_02 R_front_hand01_01
R_front_hand02_02 R_front_hand02_01
R_front_hand03_02 R_front_hand03_01
null_rope01_connect L_mid_tent01
Rope1_Seg01 null_rope01_connect
Rope1_Seg02 Rope1_Seg01
Rope1_Seg03 Rope1_Seg02
Rope1_Seg04 Rope1_Seg03
Rope1_Seg05 Rope1_Seg04
Rope1_Seg06 Rope1_Seg05
Rope1_Seg07 Rope1_Seg06
Rope1_Seg09 Rope1_Seg07
L_mid_hand01 Rope1_Seg09
L_mid_hand02 Rope1_Seg09
L_mid_hand03 Rope1_Seg09
null_rope02_connect R_mid_tent01
Rope2_Seg01 null_rope02_connect
Rope2_Seg02 Rope2_Seg01
Rope2_Seg03 Rope2_Seg02
Rope2_Seg04 Rope2_Seg03
Rope2_Seg05 Rope2_Seg04
Rope2_Seg06 Rope2_Seg05
Rope2_Seg07 Rope2_Seg06
Rope2_Seg09 Rope2_Seg07
R_mid_hand01 Rope2_Seg09
R_mid_hand02 Rope2_Seg09
R_mid_hand03 Rope2_Seg09
spine02 spine01
spine03 spine02
pelvis spine03
null_rope03_connect pelvis
null_rope04_connect pelvis
Rope3_Seg01 null_rope03_connect
Rope3_Seg02 Rope3_Seg01
Rope3_Seg03 Rope3_Seg02
Rope3_Seg04 Rope3_Seg03
Rope3_Seg05 Rope3_Seg04
Rope3_Seg06 Rope3_Seg05
Rope3_Seg07 Rope3_Seg06
Rope3_Seg08 Rope3_Seg07
Rope3_Seg09 Rope3_Seg08
R_rear_hand01 Rope3_Seg09
R_rear_hand02 Rope3_Seg09
R_rear_hand03 Rope3_Seg09
Rope4_Seg01 null_rope04_connect
Rope4_Seg02 Rope4_Seg01
Rope4_Seg03 Rope4_Seg02
Rope4_Seg04 Rope4_Seg03
Rope4_Seg05 Rope4_Seg04
Rope4_Seg06 Rope4_Seg05
Rope4_Seg07 Rope4_Seg06
Rope4_Seg08 Rope4_Seg07
Rope4_Seg09 Rope4_Seg08
L_rear_hand01 Rope4_Seg09
L_rear_hand02 Rope4_Seg09
L_rear_hand03 Rope4_Seg09
[BasePosition]
#SegmentName Tx, Ty, Tz, Rx, Ry, Rz, BoneLength
MASTER 0.000000 0.000000 0.000000 -90.000000 0.000000 0.000000 10.000000 
root 0.000000 0.000000 0.000000 0.000000 0.000000 0.000000 10.000000 
chest 0.000000 0.000000 0.000000 0.000000 0.000000 0.000000 10.000000 
L_mid_tent01 0.000000 0.000000 0.000000 0.000000 0.000000 0.000000 10.000000 
R_mid_tent01 0.000000 0.000000 0.000000 0.000000 0.000000 0.000000 10.000000 
spine01 0.000000 0.000000 0.000000 0.000000 0.000000 0.000000 10.000000 
Bip01_Neck 0.000000 0.000000 0.000000 0.000000 0.000000 0.000000 10.000000 
L_humerus 0.000000 0.000000 0.000000 0.000000 0.000000 0.000000 10.000000 
R_humerus 0.000000 0.000000 0.000000 0.000000 0.000000 0.000000 10.000000 
weapon_bone 0.000000 0.000000 0.000000 0.000000 0.000000 0.000000 10.000000 
Bip01_Head 0.000000 0.000000 0.000000 0.000000 0.000000 0.000000 10.000000 
eye_left_bone 0.000000 0.000000 0.000000 0.000000 0.000000 0.000000 10.000000 
eye_right_bone 0.000000 0.000000 0.000000 0.000000 0.000000 0.000000 10.000000 
L_forearm 0.000000 0.000000 0.000000 0.000000 0.000000 0.000000 10.000000 
L_front_hand 0.000000 0.000000 0.000000 0.000000 0.000000 0.000000 10.000000 
L_weapon_bone 0.000000 0.000000 0.000000 0.000000 0.000000 0.000000 10.000000 
L_front_hand01_01 0.000000 0.000000 0.000000 0.000000 0.000000 0.000000 10.000000 
L_front_hand02_01 0.000000 0.000000 0.000000 0.000000 0.000000 0.000000 10.000000 
L_front_hand03_01 0.000000 0.000000 0.000000 0.000000 0.000000 0.000000 10.000000 
L_front_hand01_02 0.000000 0.000000 0.000000 0.000000 0.000000 0.000000 10.000000 
L_front_hand02_02 0.000000 0.000000 0.000000 0.000000 0.000000 0.000000 10.000000 
L_front_hand03_02 0.000000 0.000000 0.000000 0.000000 0.000000 0.000000 10.000000 
R_forearm 0.000000 0.000000 0.000000 0.000000 0.000000 0.000000 10.000000 
R_front_hand 0.000000 0.000000 0.000000 0.000000 0.000000 0.000000 10.000000 
R_weapon_bone 0.000000 0.000000 0.000000 0.000000 0.000000 0.000000 10.000000 
R_front_hand01_01 0.000000 0.000000 0.000000 0.000000 0.000000 0.000000 10.000000 
R_front_hand02_01 0.000000 0.000000 0.000000 0.000000 0.000000 0.000000 10.000000 
R_front_hand03_01 0.000000 0.000000 0.000000 0.000000 0.000000 0.000000 10.000000 
R_front_hand01_02 0.000000 0.000000 0.000000 0.000000 0.000000 0.000000 10.000000 
R_front_hand02_02 0.000000 0.000000 0.000000 0.000000 0.000000 0.000000 10.000000 
R_front_hand03_02 0.000000 0.000000 0.000000 0.000000 0.000000 0.000000 10.000000 
null_rope01_connect 0.000000 0.000000 0.000000 0.000000 0.000000 0.000000 10.000000 
Rope1_Seg01 0.000000 0.000000 0.000000 0.000000 0.000000 0.000000 10.000000 
Rope1_Seg02 0.000000 0.000000 0.000000 0.000000 0.000000 0.000000 10.000000 
Rope1_Seg03 0.000000 0.000000 0.000000 0.000000 0.000000 0.000000 10.000000 
Rope1_Seg04 0.000000 0.000000 0.000000 0.000000 0.000000 0.000000 10.000000 
Rope1_Seg05 0.000000 0.000000 0.000000 0.000000 0.000000 0.000000 10.000000 
Rope1_Seg06 0.000000 0.000000 0.000000 0.000000 0.000000 0.000000 10.000000 
Rope1_Seg07 0.000000 0.000000 0.000000 0.000000 0.000000 0.000000 10.000000 
Rope1_Seg09 0.000000 0.000000 0.000000 0.000000 0.000000 0.000000 10.000000 
L_mid_hand01 0.000000 0.000000 0.000000 0.000000 0.000000 0.000000 10.000000 
L_mid_hand02 0.000000 0.000000 0.000000 0.000000 0.000000 0.000000 10.000000 
L_mid_hand03 0.000000 0.000000 0.000000 0.000000 0.000000 0.000000 10.000000 
null_rope02_connect 0.000000 0.000000 0.000000 0.000000 0.000000 0.000000 10.000000 
Rope2_Seg01 0.000000 0.000000 0.000000 0.000000 0.000000 0.000000 10.000000 
Rope2_Seg02 0.000000 0.000000 0.000000 0.000000 0.000000 0.000000 10.000000 
Rope2_Seg03 0.000000 0.000000 0.000000 0.000000 0.000000 0.000000 10.000000 
Rope2_Seg04 0.000000 0.000000 0.000000 0.000000 0.000000 0.000000 10.000000 
Rope2_Seg05 0.000000 0.000000 0.000000 0.000000 0.000000 0.000000 10.000000 
Rope2_Seg06 0.000000 0.000000 0.000000 0.000000 0.000000 0.000000 10.000000 
Rope2_Seg07 0.000000 0.000000 0.000000 0.000000 0.000000 0.000000 10.000000 
Rope2_Seg09 0.000000 0.000000 0.000000 0.000000 0.000000 0.000000 10.000000 
R_mid_hand01 0.000000 0.000000 0.000000 0.000000 0.000000 0.000000 10.000000 
R_mid_hand02 0.000000 0.000000 0.000000 0.000000 0.000000 0.000000 10.000000 
R_mid_hand03 0.000000 0.000000 0.000000 0.000000 0.000000 0.000000 10.000000 
spine02 0.000000 0.000000 0.000000 0.000000 0.000000 0.000000 10.000000 
spine03 0.000000 0.000000 0.000000 0.000000 0.000000 0.000000 10.000000 
pelvis 0.000000 0.000000 0.000000 0.000000 0.000000 0.000000 10.000000 
null_rope03_connect 0.000000 0.000000 0.000000 0.000000 0.000000 0.000000 10.000000 
null_rope04_connect 0.000000 0.000000 0.000000 0.000000 0.000000 0.000000 10.000000 
Rope3_Seg01 0.000000 0.000000 0.000000 0.000000 0.000000 0.000000 10.000000 
Rope3_Seg02 0.000000 0.000000 0.000000 0.000000 0.000000 0.000000 10.000000 
Rope3_Seg03 0.000000 0.000000 0.000000 0.000000 0.000000 0.000000 10.000000 
Rope3_Seg04 0.000000 0.000000 0.000000 0.000000 0.000000 0.000000 10.000000 
Rope3_Seg05 0.000000 0.000000 0.000000 0.000000 0.000000 0.000000 10.000000 
Rope3_Seg06 0.000000 0.000000 0.000000 0.000000 0.000000 0.000000 10.000000 
Rope3_Seg07 0.000000 0.000000 0.000000 0.000000 0.000000 0.000000 10.000000 
Rope3_Seg08 0.000000 0.000000 0.000000 0.000000 0.000000 0.000000 10.000000 
Rope3_Seg09 0.000000 0.000000 0.000000 0.000000 0.000000 0.000000 10.000000 
R_rear_hand01 0.000000 0.000000 0.000000 0.000000 0.000000 0.000000 10.000000 
R_rear_hand02 0.000000 0.000000 0.000000 0.000000 0.000000 0.000000 10.000000 
R_rear_hand03 0.000000 0.000000 0.000000 0.000000 0.000000 0.000000 10.000000 
Rope4_Seg01 0.000000 0.000000 0.000000 0.000000 0.000000 0.000000 10.000000 
Rope4_Seg02 0.000000 0.000000 0.000000 0.000000 0.000000 0.000000 10.000000 
Rope4_Seg03 0.000000 0.000000 0.000000 0.000000 0.000000 0.000000 10.000000 
Rope4_Seg04 0.000000 0.000000 0.000000 0.000000 0.000000 0.000000 10.000000 
Rope4_Seg05 0.000000 0.000000 0.000000 0.000000 0.000000 0.000000 10.000000 
Rope4_Seg06 0.000000 0.000000 0.000000 0.000000 0.000000 0.000000 10.000000 
Rope4_Seg07 0.000000 0.000000 0.000000 0.000000 0.000000 0.000000 10.000000 
Rope4_Seg08 0.000000 0.000000 0.000000 0.000000 0.000000 0.000000 10.000000 
Rope4_Seg09 0.000000 0.000000 0.000000 0.000000 0.000000 0.000000 10.000000 
L_rear_hand01 0.000000 0.000000 0.000000 0.000000 0.000000 0.000000 10.000000 
L_rear_hand02 0.000000 0.000000 0.000000 0.000000 0.000000 0.000000 10.000000 
L_rear_hand03 0.000000 0.000000 0.000000 0.000000 0.000000 0.000000 10.000000 
#Beginning of Data. Separated by tabs
#Fr	Tx	Ty	Tz	Rx	Ry	Rz	SF
[MASTER]
33 0.000003 -0.000013 -5077.417480 0.001660 0.001660 0.001660 5077.417480
34 0.000003 -0.000011 -5021.996582 0.001660 0.001660 0.001660 5021.996582
[root]
33 -16.502304 8.482061 1448.752441 -92.200745 -25.119734 -89.046532 1448.871338
34 -16.502304 8.964183 1448.514893 -92.006783 -19.605375 -89.225746 1448.636719
[chest]
33 -84.512650 -34.090519 0.000000 -2.351415 -0.966982 178.044281 91.129311
34 -84.512650 -34.090519 0.000000 -2.250939 -0.593164 174.100998 91.129311
[L_mid_tent01]
33 27.299213 22.178846 -249.918655 -15.907055 24.039118 35.830803 252.381622
34 27.299210 22.178862 -249.918671 -18.373905 19.649588 26.738516 252.381638
[R_mid_tent01]
33 23.228794 24.509907 226.238495 -172.107239 -32.270016 43.151131 228.744751
34 23.228794 24.509907 226.238495 -168.723053 -27.029877 35.314980 228.744751
[spine01]
33 -0.361383 -0.195265 0.000000 0.001890 0.001392 17.273039 0.410763
34 -0.361383 -0.195265 0.000000 0.001913 0.001360 19.206535 0.410763
[Bip01_Neck]
33 165.484543 71.581718 0.000119 176.643677 -1.657967 43.431911 180.302734
34 165.484543 71.581718 0.000119 176.643677 -1.657967 43.431911 180.302734
[L_humerus]
33 -13.983130 -135.272980 -120.471481 142.394012 79.427872 -127.995018 181.680161
34 -13.983130 -135.272980 -120.471481 49.094337 85.294930 138.408264 181.680161
[R_humerus]
33 -13.983309 -135.273102 125.287651 -176.469910 -77.402283 -88.436363 184.909012
34 -13.983309 -135.273102 125.287651 103.932854 -86.976509 -8.655334 184.909012
[weapon_bone]
33 235.964890 -300.705902 0.000000 0.000000 -89.951546 -128.212341 382.234833
34 235.964890 -300.705902 0.000000 0.000000 -89.951546 -128.212341 382.234833
[Bip01_Head]
33 213.444199 185.715332 11.776948 4.962490 2.797846 -43.898743 283.173645
34 213.444199 185.715332 11.776944 4.962491 2.797846 -43.898746 283.173645
[eye_left_bone]
33 -24.626970 125.451866 -64.772606 0.000000 -90.000000 -99.840431 143.318359
34 -24.626970 125.451866 -64.772606 0.000000 -90.000000 -99.840431 143.318359
[eye_right_bone]
33 -24.626970 125.451866 64.327362 0.000000 -89.965736 80.156380 143.117676
34 -24.626970 125.451866 64.327362 0.000000 -89.965736 80.156380 143.117676
[L_forearm]
33 322.776093 0.000000 -0.000119 0.000266 -0.002333 -103.012405 322.776093
34 322.776093 0.000000 -0.000119 0.000318 -0.002326 -105.549675 322.776093
[L_front_hand]
33 241.149185 -0.042021 -3.300071 -178.667953 -1.835447 -27.422350 241.171753
34 241.149185 -0.042021 -3.300071 -178.667953 -1.835447 -27.422344 241.171753
[L_weapon_bone]
33 156.183838 0.000000 0.000000 0.000014 0.000007 0.000001 156.183838
34 156.183838 0.000000 0.000000 0.000014 0.000007 0.000001 156.183838
[L_front_hand01_01]
33 86.095154 20.947098 -0.655860 -0.366594 -0.477154 75.385574 88.609184
34 86.095154 20.947098 -0.655860 -0.366594 -0.477154 75.385574 88.609184
[L_front_hand02_01]
33 86.935165 -11.437475 24.513514 154.399796 -59.883835 -61.369587 91.046425
34 86.935165 -11.437475 24.513514 154.399796 -59.883835 -61.369587 91.046425
[L_front_hand03_01]
33 86.637497 -14.123976 -20.424902 -153.913849 58.118122 -62.702866 90.126129
34 86.637497 -14.123976 -20.424902 -153.913849 58.118122 -62.702866 90.126129
[L_front_hand01_02]
33 71.020905 -0.000179 0.000030 0.000334 -0.002323 -106.379684 71.020905
34 71.020905 -0.000179 0.000030 0.000334 -0.002323 -106.379684 71.020905
[L_front_hand02_02]
33 71.020927 -0.000119 0.000060 0.000334 -0.002323 -106.379684 71.020927
34 71.020927 -0.000119 0.000060 0.000334 -0.002323 -106.379684 71.020927
[L_front_hand03_02]
33 71.020905 -0.000060 0.000060 0.000334 -0.002323 -106.379684 71.020905
34 71.020905 -0.000060 0.000060 0.000334 -0.002323 -106.379684 71.020905
[R_forearm]
33 322.776428 -0.000060 0.000030 0.210400 0.040117 -101.604889 322.776428
34 322.776428 -0.000060 0.000030 0.208965 0.048266 -104.164177 322.776428
[R_front_hand]
33 238.847015 -0.006795 2.210259 -2.635298 -10.645461 -26.312506 238.857239
34 238.847015 -0.006795 2.210259 -2.635298 -10.645460 -26.312500 238.857239
[R_weapon_bone]
33 155.664093 0.002503 -0.000030 0.003487 0.001180 -90.988930 155.664078
34 155.664093 0.002503 -0.000030 0.003487 0.001180 -90.988930 155.664078
[R_front_hand01_01]
33 87.624611 14.231146 22.918642 -154.633499 -59.950634 61.746063 91.683487
34 87.624611 14.231146 22.918642 -154.633499 -59.950619 61.746044 91.683487
[R_front_hand02_01]
33 89.356956 14.367283 -19.491137 154.602661 58.302849 63.744389 92.579636
34 89.356956 14.367283 -19.491137 154.602661 58.302849 63.744389 92.579636
[R_front_hand03_01]
33 87.286232 -22.307278 -0.143439 0.162155 -0.423168 -75.767921 90.091743
34 87.286232 -22.307278 -0.143439 0.162155 -0.423168 -75.767921 90.091743
[R_front_hand01_02]
33 71.020905 0.000060 0.000119 0.002323 -0.000334 106.381714 71.020905
34 71.020905 0.000060 0.000119 0.002323 -0.000334 106.381706 71.020905
[R_front_hand02_02]
33 71.020844 -0.000030 -0.000119 0.002323 -0.000334 106.381714 71.020836
34 71.020844 -0.000030 -0.000119 0.002323 -0.000334 106.381706 71.020836
[R_front_hand03_02]
33 71.020905 0.000000 0.000030 0.002323 -0.000334 106.381714 71.020905
34 71.020905 0.000000 0.000030 0.002323 -0.000334 106.381706 71.020905
[null_rope01_connect]
33 328.732483 0.000000 -0.000238 -138.127853 -59.994675 -145.617447 328.732483
34 328.732483 0.000000 -0.000238 -144.126526 -61.904266 -135.907318 328.732483
[Rope1_Seg01]
33 0.000063 -0.000042 0.000250 -46.479790 -28.343130 -143.984924 0.000261
34 0.000065 -0.000041 0.000258 6.619685 -19.445744 -125.040886 0.000269
[Rope1_Seg02]
33 139.999863 -0.000179 0.000000 48.127178 6.792173 16.509546 139.999863
34 139.999863 -0.000179 0.000000 36.479301 8.157114 2.464345 139.999863
[Rope1_Seg03]
33 139.999924 0.000060 -0.000060 26.616283 12.123026 5.802176 139.999924
34 139.999924 0.000060 -0.000060 5.754051 7.916092 -5.265801 139.999924
[Rope1_Seg04]
33 139.999924 -0.000060 -0.000119 19.364965 -0.379756 11.329611 139.999924
34 139.999924 -0.000060 -0.000119 15.552196 5.386655 3.961290 139.999924
[Rope1_Seg05]
33 139.999832 0.000119 -0.000060 23.625319 3.888779 7.461922 139.999832
34 139.999832 0.000119 -0.000060 13.917547 4.021856 4.531780 139.999832
[Rope1_Seg06]
33 139.999954 0.000119 -0.000060 9.710995 2.708370 2.093692 139.999954
34 139.999954 0.000119 -0.000060 6.177339 2.797938 1.148509 139.999954
[Rope1_Seg07]
33 139.999985 0.000060 0.000000 0.006605 0.001660 0.001660 139.999985
34 139.999985 0.000060 0.000000 3.756208 1.928119 0.559796 139.999985
[Rope1_Seg09]
33 121.602913 0.000119 -0.000089 -89.793175 -1.359789 0.847147 121.602913
34 121.602913 0.000119 -0.000089 -89.793175 -1.359789 0.847147 121.602913
[L_mid_hand01]
33 103.859421 1.038730 8.195221 130.544373 -67.584534 -38.866943 104.187431
34 103.859421 1.038730 8.195221 130.544373 -67.584534 -38.866943 104.187431
[L_mid_hand02]
33 105.572853 -4.139662 -10.864139 -168.923172 43.409309 -73.498886 106.211075
34 105.572853 -4.139662 -10.864139 -168.923172 43.409309 -73.498886 106.211075
[L_mid_hand03]
33 104.641464 17.579376 -3.913581 -6.012626 17.808172 74.893661 106.179977
34 104.641464 17.579376 -3.913581 -6.012625 17.808172 74.893669 106.179977
[null_rope02_connect]
33 328.732849 0.000179 -0.000119 -119.899521 57.895954 -9.095398 328.732849
34 328.732849 0.000179 -0.000119 -126.537796 61.957001 -17.724699 328.732849
[Rope2_Seg01]
33 0.000080 0.000111 0.000000 62.030090 3.903094 -24.265614 0.000137
34 0.000085 0.000112 0.000000 53.633995 -0.665041 -31.864161 0.000141
[Rope2_Seg02]
33 139.999741 -0.000060 -0.000119 -25.982517 -12.573781 -6.525318 139.999756
34 139.999741 -0.000060 -0.000119 -33.992283 -9.361403 -8.504617 139.999756
[Rope2_Seg03]
33 140.000107 0.000030 0.000000 -26.030045 -5.231795 -10.638094 140.000107
34 140.000107 0.000030 0.000000 -15.098997 0.875553 -7.618306 140.000107
[Rope2_Seg04]
33 139.999802 0.000000 -0.000060 -15.906387 0.073260 -9.903413 139.999802
34 139.999802 0.000000 -0.000060 -12.462423 0.915977 -7.736005 139.999802
[Rope2_Seg05]
33 139.999985 -0.000060 0.000119 -30.996298 -6.593115 -24.437658 139.999985
34 139.999985 -0.000060 0.000119 -30.222467 -4.329158 -24.278910 139.999985
[Rope2_Seg06]
33 139.999893 -0.000030 -0.000119 -13.821321 4.757748 -19.974033 139.999893
34 139.999893 -0.000030 -0.000119 -11.751567 5.898905 -17.438377 139.999893
[Rope2_Seg07]
33 139.999893 0.000060 -0.000060 -3.054694 4.074938 -7.146222 139.999893
34 139.999893 0.000060 -0.000060 -2.756060 4.063620 -6.465406 139.999893
[Rope2_Seg09]
33 121.338966 0.000089 -0.000060 33.793236 -1.359788 -0.847141 121.338966
34 121.338966 0.000089 -0.000060 33.793236 -1.359788 -0.847141 121.338966
[R_mid_hand01]
33 104.680779 11.144459 -10.335981 -16.212063 45.237247 70.462852 105.778534
34 104.680779 11.144459 -10.335981 -16.212059 45.237240 70.462852 105.778534
[R_mid_hand02]
33 104.070427 2.443552 8.231699 49.067371 -67.749794 39.286461 104.424065
34 104.070427 2.443552 8.231699 49.067368 -67.749771 39.286453 104.424065
[R_mid_hand03]
33 106.028137 -11.221827 -5.996406 -177.101105 15.551026 -76.585571 106.788818
34 106.028137 -11.221827 -5.996406 -177.101105 15.551026 -76.585571 106.788818
[spine02]
33 129.756927 0.001550 0.000119 -0.297883 -4.048457 -3.647453 129.756927
34 129.756927 0.001550 0.000119 -0.036174 -4.060281 -7.316343 129.756927
[spine03]
33 78.614029 0.082212 -4.898989 1.502903 4.003208 10.704834 78.766571
34 78.614029 0.082151 -4.898991 1.660689 3.940385 12.988605 78.766563
[pelvis]
33 169.435242 0.051022 0.000000 -0.022159 -0.190957 2.409917 169.435257
34 169.435242 0.051022 0.000000 -0.039695 -0.189146 7.033972 169.435257
[null_rope03_connect]
33 -1.257226 -2.466202 137.391083 174.911987 -88.445053 -86.471603 137.418976
34 -1.257226 -2.466202 137.391083 168.632889 -88.798622 -90.896431 137.418976
[null_rope04_connect]
33 -1.259640 -2.480268 -137.844437 174.911987 -88.445053 -86.471603 137.872513
34 -1.259640 -2.480268 -137.844437 168.632889 -88.798622 -90.896431 137.872513
[Rope3_Seg01]
33 -0.000029 -0.000007 0.000250 16.049250 -12.298545 -71.521248 0.000252
34 -0.000029 -0.000006 0.000258 17.207167 5.167497 -75.920280 0.000260
[Rope3_Seg02]
33 139.999924 -0.000119 0.000060 0.984466 8.135845 11.953360 139.999924
34 139.999924 -0.000119 0.000060 0.234381 3.917370 7.085710 139.999924
[Rope3_Seg03]
33 139.999924 -0.000119 0.000119 -1.266752 5.753141 16.671581 139.999924
34 139.999924 -0.000119 0.000119 -0.506487 3.627803 10.917963 139.999924
[Rope3_Seg04]
33 139.999924 0.000119 0.000000 1.242275 5.298129 5.914089 139.999924
34 139.999924 0.000119 0.000000 -0.905607 2.929384 8.347151 139.999924
[Rope3_Seg05]
33 139.999924 -0.000238 0.000060 13.240671 14.083034 -21.978331 139.999924
34 139.999924 -0.000238 0.000060 5.159053 3.842881 -17.915993 139.999924
[Rope3_Seg06]
33 139.999893 -0.000119 -0.000060 5.639344 8.219064 -25.289963 139.999893
34 139.999893 -0.000119 -0.000060 2.076551 1.682887 -22.603935 139.999893
[Rope3_Seg07]
33 139.999771 0.000060 -0.000119 1.059811 3.620378 -14.746978 139.999771
34 139.999771 0.000060 -0.000119 -0.344009 0.910028 -12.165994 139.999771
[Rope3_Seg08]
33 139.999985 -0.000060 0.000000 0.296458 1.344838 -6.106120 139.999985
34 139.999985 -0.000060 0.000000 -0.553422 0.562038 -7.083002 139.999985
[Rope3_Seg09]
33 90.185997 -0.000179 -0.000060 89.793228 -1.359877 -0.847183 90.185997
34 90.185997 -0.000179 -0.000060 89.793228 -1.359877 -0.847183 90.185997
[R_rear_hand01]
33 103.366196 -6.073594 -10.757982 -177.714203 24.565960 -73.910950 104.101845
34 103.366196 -6.073594 -10.757982 -177.714203 24.565960 -73.910950 104.101845
[R_rear_hand02]
33 100.509819 12.039542 -7.992327 -12.874829 36.868488 72.167213 101.543350
34 100.509819 12.039542 -7.992327 -12.874829 36.868488 72.167213 101.543350
[R_rear_hand03]
33 101.539970 5.215704 5.435467 71.484581 -71.816628 21.513813 101.819031
34 101.539970 5.215704 5.435467 71.484581 -71.816628 21.513813 101.819031
[Rope4_Seg01]
33 0.000000 0.000000 0.000000 -97.401993 -12.137301 -109.794746 0.000000
34 0.000000 0.000000 0.000000 -98.980881 3.851459 -108.533440 0.000000
[Rope4_Seg02]
33 139.999985 0.000060 0.000119 -1.272826 -8.479549 11.108323 139.999985
34 139.999985 0.000060 0.000119 -0.762848 -6.953047 4.176346 139.999985
[Rope4_Seg03]
33 139.999924 0.000000 -0.000238 0.091523 -13.609606 7.267576 139.999924
34 139.999924 0.000000 -0.000238 0.114039 -11.042952 1.973273 139.999924
[Rope4_Seg04]
33 139.999985 0.000000 0.000119 1.142106 -1.968379 8.979367 139.999985
34 139.999985 0.000000 0.000119 1.021969 -8.782416 3.579651 139.999985
[Rope4_Seg05]
33 139.999802 -0.000060 -0.000119 1.371998 15.434856 10.343106 139.999802
34 139.999802 -0.000060 -0.000119 2.033632 14.870233 12.446738 139.999802
[Rope4_Seg06]
33 139.999924 0.000000 0.000060 0.004886 7.288275 4.954268 139.999924
34 139.999924 0.000000 0.000060 0.182409 8.409055 6.033157 139.999924
[Rope4_Seg07]
33 139.999802 0.000000 0.000000 -0.263841 3.323151 2.789780 139.999802
34 139.999802 0.000000 0.000000 -0.188680 3.138233 2.806978 139.999802
[Rope4_Seg08]
33 139.999924 0.000000 0.000119 -1.765737 1.956637 1.663442 139.999924
34 139.999924 0.000000 0.000119 -1.708995 1.806898 1.631962 139.999924
[Rope4_Seg09]
33 90.185791 0.000060 0.000060 -135.617828 2.228885 0.850567 90.185791
34 90.185791 0.000060 0.000060 -135.617828 2.228885 0.850567 90.185791
[L_rear_hand01]
33 101.696655 -8.392275 -7.654577 -12.874829 -36.868488 107.832764 102.329041
34 101.696655 -8.392275 -7.654577 -12.874829 -36.868488 107.832764 102.329041
[L_rear_hand02]
33 102.726799 -1.568258 5.773216 71.484581 71.816628 158.486160 102.900848
34 102.726799 -1.568258 5.773216 71.484581 71.816628 158.486160 102.900848
[L_rear_hand03]
33 104.552910 9.721220 -10.420293 -177.714203 -24.565960 -106.089035 105.519653
34 104.552910 9.721220 -10.420293 -177.714203 -24.565960 -106.089035 105.519653
